<svg width="1824" height="1843" xmlns="http://www.w3.org/2000/svg" xmlns:xlink="http://www.w3.org/1999/xlink" overflow="hidden"><defs><clipPath id="clip0"><rect x="1769" y="187" width="1824" height="1843"/></clipPath><clipPath id="clip1"><rect x="1773" y="192" width="1815" height="1833"/></clipPath><clipPath id="clip2"><rect x="1773" y="192" width="1815" height="1833"/></clipPath><clipPath id="clip3"><rect x="2049" y="319" width="1290" height="1547"/></clipPath><clipPath id="clip4"><rect x="1773" y="192" width="1815" height="1833"/></clipPath><clipPath id="clip5"><rect x="2049" y="319" width="1290" height="1547"/></clipPath><clipPath id="clip6"><rect x="1773" y="192" width="1815" height="1833"/></clipPath><clipPath id="clip7"><rect x="2049" y="319" width="1290" height="1547"/></clipPath><clipPath id="clip8"><rect x="1773" y="192" width="1815" height="1833"/></clipPath><clipPath id="clip9"><rect x="2049" y="319" width="1290" height="1547"/></clipPath><clipPath id="clip10"><rect x="1773" y="192" width="1815" height="1833"/></clipPath><clipPath id="clip11"><rect x="1773" y="192" width="1815" height="1833"/></clipPath><clipPath id="clip12"><rect x="1773" y="192" width="1815" height="1833"/></clipPath><clipPath id="clip13"><rect x="1773" y="192" width="1815" height="1833"/></clipPath><clipPath id="clip14"><rect x="1773" y="192" width="1815" height="1833"/></clipPath><clipPath id="clip15"><rect x="1773" y="192" width="1815" height="1833"/></clipPath><clipPath id="clip16"><rect x="1773" y="192" width="1815" height="1833"/></clipPath><clipPath id="clip17"><rect x="1773" y="192" width="1815" height="1833"/></clipPath><clipPath id="clip18"><rect x="1773" y="192" width="1815" height="1833"/></clipPath><clipPath id="clip19"><rect x="1773" y="192" width="1815" height="1833"/></clipPath><clipPath id="clip20"><rect x="1773" y="192" width="1815" height="1833"/></clipPath><clipPath id="clip21"><rect x="1773" y="192" width="1815" height="1833"/></clipPath><clipPath id="clip22"><rect x="1773" y="192" width="1815" height="1833"/></clipPath><clipPath id="clip23"><rect x="1773" y="192" width="1815" height="1833"/></clipPath><clipPath id="clip24"><rect x="1773" y="192" width="1815" height="1833"/></clipPath><clipPath id="clip25"><rect x="1773" y="192" width="1815" height="1833"/></clipPath><clipPath id="clip26"><rect x="1773" y="192" width="1815" height="1833"/></clipPath><clipPath id="clip27"><rect x="1773" y="192" width="1815" height="1833"/></clipPath><clipPath id="clip28"><rect x="1773" y="192" width="1815" height="1833"/></clipPath><clipPath id="clip29"><rect x="1773" y="192" width="1815" height="1833"/></clipPath><clipPath id="clip30"><rect x="1773" y="192" width="1815" height="1833"/></clipPath><clipPath id="clip31"><rect x="1773" y="192" width="1815" height="1833"/></clipPath><clipPath id="clip32"><rect x="1773" y="192" width="1815" height="1833"/></clipPath><clipPath id="clip33"><rect x="1773" y="192" width="1815" height="1833"/></clipPath><clipPath id="clip34"><rect x="1773" y="192" width="1815" height="1833"/></clipPath><clipPath id="clip35"><rect x="1773" y="192" width="1815" height="1833"/></clipPath><clipPath id="clip36"><rect x="1773" y="192" width="1815" height="1833"/></clipPath><clipPath id="clip37"><rect x="1773" y="192" width="1815" height="1833"/></clipPath><clipPath id="clip38"><rect x="1773" y="192" width="1815" height="1833"/></clipPath><clipPath id="clip39"><rect x="1773" y="192" width="1815" height="1833"/></clipPath><clipPath id="clip40"><rect x="1773" y="192" width="1815" height="1833"/></clipPath></defs><g clip-path="url(#clip0)" transform="translate(-1769 -187)"><rect x="1774" y="193" width="1815" height="1833" fill="#FFFFFF" fill-opacity="1"/><g clip-path="url(#clip1)"><path d="M2049.5 1554.55 3335.5 1554.55M2049.5 1245.54 3335.5 1245.54M2049.5 937.531 3335.5 937.531M2049.5 628.521 3335.5 628.521M2049.5 319.5 3335.5 319.5" stroke="#D9D9D9" stroke-width="3.4375" stroke-linecap="butt" stroke-linejoin="round" stroke-miterlimit="10" stroke-opacity="1" fill="none" fill-rule="nonzero"/></g><g clip-path="url(#clip2)"><path d="M2049.5 1862.5 3335.5 1862.5" stroke="#D9D9D9" stroke-width="3.4375" stroke-linecap="butt" stroke-linejoin="round" stroke-miterlimit="10" stroke-opacity="1" fill="none" fill-rule="evenodd"/></g><g clip-path="url(#clip3)"><path d="M2103 1653.05 2210.07 1696.06 2317.08 1690.06 2424.08 1696.06 2532.08 1702.06 2639.09 1696.06 2746.09 1597 2853.09 1659.05 2961.1 1715.06 3068.1 1739 3175.1 1634.05 3282 1721.06" stroke="#4472C4" stroke-width="10.3125" stroke-linecap="round" stroke-linejoin="round" stroke-miterlimit="10" stroke-opacity="1" fill="none" fill-rule="nonzero"/></g><g clip-path="url(#clip4)"><path d="M2113.25 1654C2113.25 1660.07 2108.32 1665 2102.25 1665 2096.17 1665 2091.25 1660.07 2091.25 1654 2091.25 1647.92 2096.17 1643 2102.25 1643 2108.32 1643 2113.25 1647.92 2113.25 1654Z" stroke="#4472C4" stroke-width="3.4375" stroke-linecap="butt" stroke-linejoin="round" stroke-miterlimit="10" stroke-opacity="1" fill="#4472C4" fill-rule="nonzero" fill-opacity="1"/><path d="M2221.25 1697C2221.25 1703.07 2216.32 1708 2210.25 1708 2204.17 1708 2199.25 1703.07 2199.25 1697 2199.25 1690.92 2204.17 1686 2210.25 1686 2216.32 1686 2221.25 1690.92 2221.25 1697Z" stroke="#4472C4" stroke-width="3.4375" stroke-linecap="butt" stroke-linejoin="round" stroke-miterlimit="10" stroke-opacity="1" fill="#4472C4" fill-rule="nonzero" fill-opacity="1"/><path d="M2328.25 1691C2328.25 1697.07 2323.32 1702 2317.25 1702 2311.17 1702 2306.25 1697.07 2306.25 1691 2306.25 1684.92 2311.17 1680 2317.25 1680 2323.32 1680 2328.25 1684.92 2328.25 1691Z" stroke="#4472C4" stroke-width="3.4375" stroke-linecap="butt" stroke-linejoin="round" stroke-miterlimit="10" stroke-opacity="1" fill="#4472C4" fill-rule="nonzero" fill-opacity="1"/><path d="M2435.25 1697C2435.25 1703.07 2430.32 1708 2424.25 1708 2418.17 1708 2413.25 1703.07 2413.25 1697 2413.25 1690.92 2418.17 1686 2424.25 1686 2430.32 1686 2435.25 1690.92 2435.25 1697Z" stroke="#4472C4" stroke-width="3.4375" stroke-linecap="butt" stroke-linejoin="round" stroke-miterlimit="10" stroke-opacity="1" fill="#4472C4" fill-rule="nonzero" fill-opacity="1"/><path d="M2542.25 1703C2542.25 1709.07 2537.32 1714 2531.25 1714 2525.17 1714 2520.25 1709.07 2520.25 1703 2520.25 1696.92 2525.17 1692 2531.25 1692 2537.32 1692 2542.25 1696.92 2542.25 1703Z" stroke="#4472C4" stroke-width="3.4375" stroke-linecap="butt" stroke-linejoin="round" stroke-miterlimit="10" stroke-opacity="1" fill="#4472C4" fill-rule="nonzero" fill-opacity="1"/><path d="M2649.25 1697C2649.25 1703.07 2644.32 1708 2638.25 1708 2632.17 1708 2627.25 1703.07 2627.25 1697 2627.25 1690.92 2632.17 1686 2638.25 1686 2644.32 1686 2649.25 1690.92 2649.25 1697Z" stroke="#4472C4" stroke-width="3.4375" stroke-linecap="butt" stroke-linejoin="round" stroke-miterlimit="10" stroke-opacity="1" fill="#4472C4" fill-rule="nonzero" fill-opacity="1"/><path d="M2757.25 1598C2757.25 1604.07 2752.32 1609 2746.25 1609 2740.17 1609 2735.25 1604.07 2735.25 1598 2735.25 1591.92 2740.17 1587 2746.25 1587 2752.32 1587 2757.25 1591.92 2757.25 1598Z" stroke="#4472C4" stroke-width="3.4375" stroke-linecap="butt" stroke-linejoin="round" stroke-miterlimit="10" stroke-opacity="1" fill="#4472C4" fill-rule="nonzero" fill-opacity="1"/><path d="M2864.25 1660C2864.25 1666.07 2859.32 1671 2853.25 1671 2847.17 1671 2842.25 1666.07 2842.25 1660 2842.25 1653.92 2847.17 1649 2853.25 1649 2859.32 1649 2864.25 1653.92 2864.25 1660Z" stroke="#4472C4" stroke-width="3.4375" stroke-linecap="butt" stroke-linejoin="round" stroke-miterlimit="10" stroke-opacity="1" fill="#4472C4" fill-rule="nonzero" fill-opacity="1"/><path d="M2971.25 1715C2971.25 1721.07 2966.32 1726 2960.25 1726 2954.17 1726 2949.25 1721.07 2949.25 1715 2949.25 1708.92 2954.17 1704 2960.25 1704 2966.32 1704 2971.25 1708.92 2971.25 1715Z" stroke="#4472C4" stroke-width="3.4375" stroke-linecap="butt" stroke-linejoin="round" stroke-miterlimit="10" stroke-opacity="1" fill="#4472C4" fill-rule="nonzero" fill-opacity="1"/><path d="M3078.25 1740C3078.25 1746.07 3073.32 1751 3067.25 1751 3061.17 1751 3056.25 1746.07 3056.25 1740 3056.25 1733.92 3061.17 1729 3067.25 1729 3073.32 1729 3078.25 1733.92 3078.25 1740Z" stroke="#4472C4" stroke-width="3.4375" stroke-linecap="butt" stroke-linejoin="round" stroke-miterlimit="10" stroke-opacity="1" fill="#4472C4" fill-rule="nonzero" fill-opacity="1"/><path d="M3186.25 1635C3186.25 1641.07 3181.32 1646 3175.25 1646 3169.17 1646 3164.25 1641.07 3164.25 1635 3164.25 1628.92 3169.17 1624 3175.25 1624 3181.32 1624 3186.25 1628.92 3186.25 1635Z" stroke="#4472C4" stroke-width="3.4375" stroke-linecap="butt" stroke-linejoin="round" stroke-miterlimit="10" stroke-opacity="1" fill="#4472C4" fill-rule="nonzero" fill-opacity="1"/><path d="M3293.25 1721C3293.25 1727.07 3288.32 1732 3282.25 1732 3276.17 1732 3271.25 1727.07 3271.25 1721 3271.25 1714.92 3276.17 1710 3282.25 1710 3288.32 1710 3293.25 1714.92 3293.25 1721Z" stroke="#4472C4" stroke-width="3.4375" stroke-linecap="butt" stroke-linejoin="round" stroke-miterlimit="10" stroke-opacity="1" fill="#4472C4" fill-rule="nonzero" fill-opacity="1"/></g><g clip-path="url(#clip5)"><path d="M2103 943.031 2210.07 1209.04 2317.08 1196.04 2424.08 1233 2532.08 1085.04 2639.09 956.031 2746.09 937 2853.09 1036.03 2961.1 1079.04 3068.1 943.031 3175.1 1159.04 3282 1135.04" stroke="#ED7D31" stroke-width="10.3125" stroke-linecap="round" stroke-linejoin="round" stroke-miterlimit="10" stroke-opacity="1" fill="none" fill-rule="nonzero"/></g><g clip-path="url(#clip6)"><path d="M2113.25 944C2113.25 950.075 2108.32 954.999 2102.25 954.999 2096.17 954.999 2091.25 950.075 2091.25 944 2091.25 937.925 2096.17 933 2102.25 933 2108.32 933 2113.25 937.925 2113.25 944Z" stroke="#ED7D31" stroke-width="3.4375" stroke-linecap="butt" stroke-linejoin="round" stroke-miterlimit="10" stroke-opacity="1" fill="#ED7D31" fill-rule="nonzero" fill-opacity="1"/><path d="M2221.25 1209C2221.25 1215.07 2216.32 1220 2210.25 1220 2204.17 1220 2199.25 1215.07 2199.25 1209 2199.25 1202.92 2204.17 1198 2210.25 1198 2216.32 1198 2221.25 1202.92 2221.25 1209Z" stroke="#ED7D31" stroke-width="3.4375" stroke-linecap="butt" stroke-linejoin="round" stroke-miterlimit="10" stroke-opacity="1" fill="#ED7D31" fill-rule="nonzero" fill-opacity="1"/><path d="M2328.25 1197C2328.25 1203.07 2323.32 1208 2317.25 1208 2311.17 1208 2306.25 1203.07 2306.25 1197 2306.25 1190.92 2311.17 1186 2317.25 1186 2323.32 1186 2328.25 1190.92 2328.25 1197Z" stroke="#ED7D31" stroke-width="3.4375" stroke-linecap="butt" stroke-linejoin="round" stroke-miterlimit="10" stroke-opacity="1" fill="#ED7D31" fill-rule="nonzero" fill-opacity="1"/><path d="M2435.25 1234C2435.25 1240.07 2430.32 1245 2424.25 1245 2418.17 1245 2413.25 1240.07 2413.25 1234 2413.25 1227.92 2418.17 1223 2424.25 1223 2430.32 1223 2435.25 1227.92 2435.25 1234Z" stroke="#ED7D31" stroke-width="3.4375" stroke-linecap="butt" stroke-linejoin="round" stroke-miterlimit="10" stroke-opacity="1" fill="#ED7D31" fill-rule="nonzero" fill-opacity="1"/><path d="M2542.25 1086C2542.25 1092.07 2537.32 1097 2531.25 1097 2525.17 1097 2520.25 1092.07 2520.25 1086 2520.25 1079.92 2525.17 1075 2531.25 1075 2537.32 1075 2542.25 1079.92 2542.25 1086Z" stroke="#ED7D31" stroke-width="3.4375" stroke-linecap="butt" stroke-linejoin="round" stroke-miterlimit="10" stroke-opacity="1" fill="#ED7D31" fill-rule="nonzero" fill-opacity="1"/><path d="M2649.25 956C2649.25 962.075 2644.32 966.999 2638.25 966.999 2632.17 966.999 2627.25 962.075 2627.25 956 2627.25 949.925 2632.17 945 2638.25 945 2644.32 945 2649.25 949.925 2649.25 956Z" stroke="#ED7D31" stroke-width="3.4375" stroke-linecap="butt" stroke-linejoin="round" stroke-miterlimit="10" stroke-opacity="1" fill="#ED7D31" fill-rule="nonzero" fill-opacity="1"/><path d="M2757.25 937.999C2757.25 944.074 2752.32 948.999 2746.25 948.999 2740.17 948.999 2735.25 944.074 2735.25 937.999 2735.25 931.924 2740.17 927 2746.25 927 2752.32 927 2757.25 931.924 2757.25 937.999Z" stroke="#ED7D31" stroke-width="3.4375" stroke-linecap="butt" stroke-linejoin="round" stroke-miterlimit="10" stroke-opacity="1" fill="#ED7D31" fill-rule="nonzero" fill-opacity="1"/><path d="M2864.25 1036C2864.25 1042.07 2859.32 1047 2853.25 1047 2847.17 1047 2842.25 1042.07 2842.25 1036 2842.25 1029.92 2847.17 1025 2853.25 1025 2859.32 1025 2864.25 1029.92 2864.25 1036Z" stroke="#ED7D31" stroke-width="3.4375" stroke-linecap="butt" stroke-linejoin="round" stroke-miterlimit="10" stroke-opacity="1" fill="#ED7D31" fill-rule="nonzero" fill-opacity="1"/><path d="M2971.25 1080C2971.25 1086.07 2966.32 1091 2960.25 1091 2954.17 1091 2949.25 1086.07 2949.25 1080 2949.25 1073.92 2954.17 1069 2960.25 1069 2966.32 1069 2971.25 1073.92 2971.25 1080Z" stroke="#ED7D31" stroke-width="3.4375" stroke-linecap="butt" stroke-linejoin="round" stroke-miterlimit="10" stroke-opacity="1" fill="#ED7D31" fill-rule="nonzero" fill-opacity="1"/><path d="M3078.25 944C3078.25 950.075 3073.32 954.999 3067.25 954.999 3061.17 954.999 3056.25 950.075 3056.25 944 3056.25 937.925 3061.17 933 3067.25 933 3073.32 933 3078.25 937.925 3078.25 944Z" stroke="#ED7D31" stroke-width="3.4375" stroke-linecap="butt" stroke-linejoin="round" stroke-miterlimit="10" stroke-opacity="1" fill="#ED7D31" fill-rule="nonzero" fill-opacity="1"/><path d="M3186.25 1160C3186.25 1166.07 3181.32 1171 3175.25 1171 3169.17 1171 3164.25 1166.07 3164.25 1160 3164.25 1153.92 3169.17 1149 3175.25 1149 3181.32 1149 3186.25 1153.92 3186.25 1160Z" stroke="#ED7D31" stroke-width="3.4375" stroke-linecap="butt" stroke-linejoin="round" stroke-miterlimit="10" stroke-opacity="1" fill="#ED7D31" fill-rule="nonzero" fill-opacity="1"/><path d="M3293.25 1135C3293.25 1141.07 3288.32 1146 3282.25 1146 3276.17 1146 3271.25 1141.07 3271.25 1135 3271.25 1128.92 3276.17 1124 3282.25 1124 3288.32 1124 3293.25 1128.92 3293.25 1135Z" stroke="#ED7D31" stroke-width="3.4375" stroke-linecap="butt" stroke-linejoin="round" stroke-miterlimit="10" stroke-opacity="1" fill="#ED7D31" fill-rule="nonzero" fill-opacity="1"/></g><g clip-path="url(#clip7)"><path d="M2103 1851 2210.07 1752.06 2317 1678" stroke="#A5A5A5" stroke-width="10.3125" stroke-linecap="round" stroke-linejoin="round" stroke-miterlimit="10" stroke-opacity="1" fill="none" fill-rule="nonzero"/></g><g clip-path="url(#clip8)"><path d="M2113.25 1851C2113.25 1857.07 2108.32 1862 2102.25 1862 2096.17 1862 2091.25 1857.07 2091.25 1851 2091.25 1844.92 2096.17 1840 2102.25 1840 2108.32 1840 2113.25 1844.92 2113.25 1851Z" stroke="#A5A5A5" stroke-width="3.4375" stroke-linecap="butt" stroke-linejoin="round" stroke-miterlimit="10" stroke-opacity="1" fill="#A5A5A5" fill-rule="nonzero" fill-opacity="1"/><path d="M2221.25 1752C2221.25 1758.07 2216.32 1763 2210.25 1763 2204.17 1763 2199.25 1758.07 2199.25 1752 2199.25 1745.92 2204.17 1741 2210.25 1741 2216.32 1741 2221.25 1745.92 2221.25 1752Z" stroke="#A5A5A5" stroke-width="3.4375" stroke-linecap="butt" stroke-linejoin="round" stroke-miterlimit="10" stroke-opacity="1" fill="#A5A5A5" fill-rule="nonzero" fill-opacity="1"/><path d="M2328.25 1678C2328.25 1684.07 2323.32 1689 2317.25 1689 2311.17 1689 2306.25 1684.07 2306.25 1678 2306.25 1671.92 2311.17 1667 2317.25 1667 2323.32 1667 2328.25 1671.92 2328.25 1678Z" stroke="#A5A5A5" stroke-width="3.4375" stroke-linecap="butt" stroke-linejoin="round" stroke-miterlimit="10" stroke-opacity="1" fill="#A5A5A5" fill-rule="nonzero" fill-opacity="1"/></g><g clip-path="url(#clip9)"><path d="M2103 740.024 2210.07 616.02 2317.08 752.025 2424.08 678.022 2532.08 419 2639.09 561.018 2746.09 665.022 2853.09 838.027 2961.1 956.031 3068.1 733.024 3175.1 733.024 3282 1178" stroke="#FFC000" stroke-width="10.3125" stroke-linecap="round" stroke-linejoin="round" stroke-miterlimit="10" stroke-opacity="1" fill="none" fill-rule="nonzero"/></g><g clip-path="url(#clip10)"><path d="M2113.25 739.999C2113.25 746.074 2108.32 750.999 2102.25 750.999 2096.17 750.999 2091.25 746.074 2091.25 739.999 2091.25 733.924 2096.17 729 2102.25 729 2108.32 729 2113.25 733.924 2113.25 739.999Z" stroke="#FFC000" stroke-width="3.4375" stroke-linecap="butt" stroke-linejoin="round" stroke-miterlimit="10" stroke-opacity="1" fill="#FFC000" fill-rule="nonzero" fill-opacity="1"/><path d="M2221.25 617C2221.25 623.075 2216.32 627.999 2210.25 627.999 2204.17 627.999 2199.25 623.075 2199.25 617 2199.25 610.925 2204.17 606 2210.25 606 2216.32 606 2221.25 610.925 2221.25 617Z" stroke="#FFC000" stroke-width="3.4375" stroke-linecap="butt" stroke-linejoin="round" stroke-miterlimit="10" stroke-opacity="1" fill="#FFC000" fill-rule="nonzero" fill-opacity="1"/><path d="M2328.25 751.999C2328.25 758.074 2323.32 762.999 2317.25 762.999 2311.17 762.999 2306.25 758.074 2306.25 751.999 2306.25 745.924 2311.17 741 2317.25 741 2323.32 741 2328.25 745.924 2328.25 751.999Z" stroke="#FFC000" stroke-width="3.4375" stroke-linecap="butt" stroke-linejoin="round" stroke-miterlimit="10" stroke-opacity="1" fill="#FFC000" fill-rule="nonzero" fill-opacity="1"/><path d="M2435.25 678C2435.25 684.074 2430.32 688.999 2424.25 688.999 2418.17 688.999 2413.25 684.074 2413.25 678 2413.25 671.925 2418.17 667 2424.25 667 2430.32 667 2435.25 671.925 2435.25 678Z" stroke="#FFC000" stroke-width="3.4375" stroke-linecap="butt" stroke-linejoin="round" stroke-miterlimit="10" stroke-opacity="1" fill="#FFC000" fill-rule="nonzero" fill-opacity="1"/><path d="M2542.25 419C2542.25 425.075 2537.32 429.999 2531.25 429.999 2525.17 429.999 2520.25 425.075 2520.25 419 2520.25 412.925 2525.17 408 2531.25 408 2537.32 408 2542.25 412.925 2542.25 419Z" stroke="#FFC000" stroke-width="3.4375" stroke-linecap="butt" stroke-linejoin="round" stroke-miterlimit="10" stroke-opacity="1" fill="#FFC000" fill-rule="nonzero" fill-opacity="1"/><path d="M2649.25 561C2649.25 567.075 2644.32 571.999 2638.25 571.999 2632.17 571.999 2627.25 567.075 2627.25 561 2627.25 554.925 2632.17 550 2638.25 550 2644.32 550 2649.25 554.925 2649.25 561Z" stroke="#FFC000" stroke-width="3.4375" stroke-linecap="butt" stroke-linejoin="round" stroke-miterlimit="10" stroke-opacity="1" fill="#FFC000" fill-rule="nonzero" fill-opacity="1"/><path d="M2757.25 665.999C2757.25 672.074 2752.32 676.999 2746.25 676.999 2740.17 676.999 2735.25 672.074 2735.25 665.999 2735.25 659.925 2740.17 655 2746.25 655 2752.32 655 2757.25 659.925 2757.25 665.999Z" stroke="#FFC000" stroke-width="3.4375" stroke-linecap="butt" stroke-linejoin="round" stroke-miterlimit="10" stroke-opacity="1" fill="#FFC000" fill-rule="nonzero" fill-opacity="1"/><path d="M2864.25 838.999C2864.25 845.074 2859.32 849.999 2853.25 849.999 2847.17 849.999 2842.25 845.074 2842.25 838.999 2842.25 832.924 2847.17 828 2853.25 828 2859.32 828 2864.25 832.924 2864.25 838.999Z" stroke="#FFC000" stroke-width="3.4375" stroke-linecap="butt" stroke-linejoin="round" stroke-miterlimit="10" stroke-opacity="1" fill="#FFC000" fill-rule="nonzero" fill-opacity="1"/><path d="M2971.25 956C2971.25 962.075 2966.32 966.999 2960.25 966.999 2954.17 966.999 2949.25 962.075 2949.25 956 2949.25 949.925 2954.17 945 2960.25 945 2966.32 945 2971.25 949.925 2971.25 956Z" stroke="#FFC000" stroke-width="3.4375" stroke-linecap="butt" stroke-linejoin="round" stroke-miterlimit="10" stroke-opacity="1" fill="#FFC000" fill-rule="nonzero" fill-opacity="1"/><path d="M3078.25 734C3078.25 740.074 3073.32 744.999 3067.25 744.999 3061.17 744.999 3056.25 740.074 3056.25 734 3056.25 727.925 3061.17 723 3067.25 723 3073.32 723 3078.25 727.925 3078.25 734Z" stroke="#FFC000" stroke-width="3.4375" stroke-linecap="butt" stroke-linejoin="round" stroke-miterlimit="10" stroke-opacity="1" fill="#FFC000" fill-rule="nonzero" fill-opacity="1"/><path d="M3186.25 734C3186.25 740.074 3181.32 744.999 3175.25 744.999 3169.17 744.999 3164.25 740.074 3164.25 734 3164.25 727.925 3169.17 723 3175.25 723 3181.32 723 3186.25 727.925 3186.25 734Z" stroke="#FFC000" stroke-width="3.4375" stroke-linecap="butt" stroke-linejoin="round" stroke-miterlimit="10" stroke-opacity="1" fill="#FFC000" fill-rule="nonzero" fill-opacity="1"/><path d="M3293.25 1178C3293.25 1184.07 3288.32 1189 3282.25 1189 3276.17 1189 3271.25 1184.07 3271.25 1178 3271.25 1171.92 3276.17 1167 3282.25 1167 3288.32 1167 3293.25 1171.92 3293.25 1178Z" stroke="#FFC000" stroke-width="3.4375" stroke-linecap="butt" stroke-linejoin="round" stroke-miterlimit="10" stroke-opacity="1" fill="#FFC000" fill-rule="nonzero" fill-opacity="1"/></g><g clip-path="url(#clip11)"><text fill="#595959" fill-opacity="1" font-family="Calibri,Calibri_MSFontService,sans-serif" font-style="normal" font-variant="normal" font-weight="400" font-stretch="normal" font-size="41" text-anchor="start" direction="ltr" writing-mode="lr-tb" unicode-bidi="normal" text-decoration="none" transform="matrix(1 0 0 1 1990.05 1873)">0</text></g><g clip-path="url(#clip12)"><text fill="#595959" fill-opacity="1" font-family="Calibri,Calibri_MSFontService,sans-serif" font-style="normal" font-variant="normal" font-weight="400" font-stretch="normal" font-size="41" text-anchor="start" direction="ltr" writing-mode="lr-tb" unicode-bidi="normal" text-decoration="none" transform="matrix(1 0 0 1 1969.15 1564)">50</text></g><g clip-path="url(#clip13)"><text fill="#595959" fill-opacity="1" font-family="Calibri,Calibri_MSFontService,sans-serif" font-style="normal" font-variant="normal" font-weight="400" font-stretch="normal" font-size="41" text-anchor="start" direction="ltr" writing-mode="lr-tb" unicode-bidi="normal" text-decoration="none" transform="matrix(1 0 0 1 1948.25 1256)">100</text></g><g clip-path="url(#clip14)"><text fill="#595959" fill-opacity="1" font-family="Calibri,Calibri_MSFontService,sans-serif" font-style="normal" font-variant="normal" font-weight="400" font-stretch="normal" font-size="41" text-anchor="start" direction="ltr" writing-mode="lr-tb" unicode-bidi="normal" text-decoration="none" transform="matrix(1 0 0 1 1948.25 947)">150</text></g><g clip-path="url(#clip15)"><text fill="#595959" fill-opacity="1" font-family="Calibri,Calibri_MSFontService,sans-serif" font-style="normal" font-variant="normal" font-weight="400" font-stretch="normal" font-size="41" text-anchor="start" direction="ltr" writing-mode="lr-tb" unicode-bidi="normal" text-decoration="none" transform="matrix(1 0 0 1 1948.25 638)">200</text></g><g clip-path="url(#clip16)"><text fill="#595959" fill-opacity="1" font-family="Calibri,Calibri_MSFontService,sans-serif" font-style="normal" font-variant="normal" font-weight="400" font-stretch="normal" font-size="41" text-anchor="start" direction="ltr" writing-mode="lr-tb" unicode-bidi="normal" text-decoration="none" transform="matrix(1 0 0 1 1948.25 330)">250</text></g><g clip-path="url(#clip17)"><text fill="#595959" fill-opacity="1" font-family="Calibri,Calibri_MSFontService,sans-serif" font-style="normal" font-variant="normal" font-weight="400" font-stretch="normal" font-size="41" text-anchor="start" direction="ltr" writing-mode="lr-tb" unicode-bidi="normal" text-decoration="none" transform="matrix(1 0 0 1 2075.53 1928)">Jan</text></g><g clip-path="url(#clip18)"><text fill="#595959" fill-opacity="1" font-family="Calibri,Calibri_MSFontService,sans-serif" font-style="normal" font-variant="normal" font-weight="400" font-stretch="normal" font-size="41" text-anchor="start" direction="ltr" writing-mode="lr-tb" unicode-bidi="normal" text-decoration="none" transform="matrix(1 0 0 1 2179.47 1928)">Feb</text></g><g clip-path="url(#clip19)"><text fill="#595959" fill-opacity="1" font-family="Calibri,Calibri_MSFontService,sans-serif" font-style="normal" font-variant="normal" font-weight="400" font-stretch="normal" font-size="41" text-anchor="start" direction="ltr" writing-mode="lr-tb" unicode-bidi="normal" text-decoration="none" transform="matrix(1 0 0 1 2282.57 1928)">Mar</text></g><g clip-path="url(#clip20)"><text fill="#595959" fill-opacity="1" font-family="Calibri,Calibri_MSFontService,sans-serif" font-style="normal" font-variant="normal" font-weight="400" font-stretch="normal" font-size="41" text-anchor="start" direction="ltr" writing-mode="lr-tb" unicode-bidi="normal" text-decoration="none" transform="matrix(1 0 0 1 2394.53 1928)">Apr</text></g><g clip-path="url(#clip21)"><text fill="#595959" fill-opacity="1" font-family="Calibri,Calibri_MSFontService,sans-serif" font-style="normal" font-variant="normal" font-weight="400" font-stretch="normal" font-size="41" text-anchor="start" direction="ltr" writing-mode="lr-tb" unicode-bidi="normal" text-decoration="none" transform="matrix(1 0 0 1 2494.88 1928)">May</text></g><g clip-path="url(#clip22)"><text fill="#595959" fill-opacity="1" font-family="Calibri,Calibri_MSFontService,sans-serif" font-style="normal" font-variant="normal" font-weight="400" font-stretch="normal" font-size="41" text-anchor="start" direction="ltr" writing-mode="lr-tb" unicode-bidi="normal" text-decoration="none" transform="matrix(1 0 0 1 2610.7 1928)">Jun</text></g><g clip-path="url(#clip23)"><text fill="#595959" fill-opacity="1" font-family="Calibri,Calibri_MSFontService,sans-serif" font-style="normal" font-variant="normal" font-weight="400" font-stretch="normal" font-size="41" text-anchor="start" direction="ltr" writing-mode="lr-tb" unicode-bidi="normal" text-decoration="none" transform="matrix(1 0 0 1 2724.04 1928)">Jul</text></g><g clip-path="url(#clip24)"><text fill="#595959" fill-opacity="1" font-family="Calibri,Calibri_MSFontService,sans-serif" font-style="normal" font-variant="normal" font-weight="400" font-stretch="normal" font-size="41" text-anchor="start" direction="ltr" writing-mode="lr-tb" unicode-bidi="normal" text-decoration="none" transform="matrix(1 0 0 1 2820.93 1928)">Aug</text></g><g clip-path="url(#clip25)"><text fill="#595959" fill-opacity="1" font-family="Calibri,Calibri_MSFontService,sans-serif" font-style="normal" font-variant="normal" font-weight="400" font-stretch="normal" font-size="41" text-anchor="start" direction="ltr" writing-mode="lr-tb" unicode-bidi="normal" text-decoration="none" transform="matrix(1 0 0 1 2930.06 1928)">Sep</text></g><g clip-path="url(#clip26)"><text fill="#595959" fill-opacity="1" font-family="Calibri,Calibri_MSFontService,sans-serif" font-style="normal" font-variant="normal" font-weight="400" font-stretch="normal" font-size="41" text-anchor="start" direction="ltr" writing-mode="lr-tb" unicode-bidi="normal" text-decoration="none" transform="matrix(1 0 0 1 3038.58 1928)">Oct</text></g><g clip-path="url(#clip27)"><text fill="#595959" fill-opacity="1" font-family="Calibri,Calibri_MSFontService,sans-serif" font-style="normal" font-variant="normal" font-weight="400" font-stretch="normal" font-size="41" text-anchor="start" direction="ltr" writing-mode="lr-tb" unicode-bidi="normal" text-decoration="none" transform="matrix(1 0 0 1 3141.59 1928)">Nov</text></g><g clip-path="url(#clip28)"><text fill="#595959" fill-opacity="1" font-family="Calibri,Calibri_MSFontService,sans-serif" font-style="normal" font-variant="normal" font-weight="400" font-stretch="normal" font-size="41" text-anchor="start" direction="ltr" writing-mode="lr-tb" unicode-bidi="normal" text-decoration="none" transform="matrix(1 0 0 1 3250.65 1928)">Dec</text></g><g clip-path="url(#clip29)"><path d="M3269 995 3357 995.001" stroke="#4472C4" stroke-width="10.3125" stroke-linecap="round" stroke-linejoin="round" stroke-miterlimit="10" stroke-opacity="1" fill="none" fill-rule="evenodd"/></g><g clip-path="url(#clip30)"><path d="M3323 994C3323 1000.07 3318.07 1005 3312 1005 3305.92 1005 3301 1000.07 3301 994 3301 987.925 3305.92 983 3312 983 3318.07 983 3323 987.925 3323 994Z" stroke="#4472C4" stroke-width="3.4375" stroke-linecap="butt" stroke-linejoin="round" stroke-miterlimit="10" stroke-opacity="1" fill="#4472C4" fill-rule="nonzero" fill-opacity="1"/></g><g clip-path="url(#clip31)"><text fill="#595959" fill-opacity="1" font-family="Calibri,Calibri_MSFontService,sans-serif" font-style="normal" font-variant="normal" font-weight="400" font-stretch="normal" font-size="41" text-anchor="start" direction="ltr" writing-mode="lr-tb" unicode-bidi="normal" text-decoration="none" transform="matrix(1 0 0 1 3366.25 1005)">canceled</text></g><g clip-path="url(#clip32)"><path d="M3269 1072 3357 1072" stroke="#ED7D31" stroke-width="10.3125" stroke-linecap="round" stroke-linejoin="round" stroke-miterlimit="10" stroke-opacity="1" fill="none" fill-rule="evenodd"/></g><g clip-path="url(#clip33)"><path d="M3323 1072C3323 1078.07 3318.07 1083 3312 1083 3305.92 1083 3301 1078.07 3301 1072 3301 1065.92 3305.92 1061 3312 1061 3318.07 1061 3323 1065.92 3323 1072Z" stroke="#ED7D31" stroke-width="3.4375" stroke-linecap="butt" stroke-linejoin="round" stroke-miterlimit="10" stroke-opacity="1" fill="#ED7D31" fill-rule="nonzero" fill-opacity="1"/></g><g clip-path="url(#clip34)"><text fill="#595959" fill-opacity="1" font-family="Calibri,Calibri_MSFontService,sans-serif" font-style="normal" font-variant="normal" font-weight="400" font-stretch="normal" font-size="41" text-anchor="start" direction="ltr" writing-mode="lr-tb" unicode-bidi="normal" text-decoration="none" transform="matrix(1 0 0 1 3366.25 1082)">failed</text></g><g clip-path="url(#clip35)"><path d="M3269 1150 3357 1150" stroke="#A5A5A5" stroke-width="10.3125" stroke-linecap="round" stroke-linejoin="round" stroke-miterlimit="10" stroke-opacity="1" fill="none" fill-rule="evenodd"/></g><g clip-path="url(#clip36)"><path d="M3323 1149C3323 1155.07 3318.07 1160 3312 1160 3305.92 1160 3301 1155.07 3301 1149 3301 1142.92 3305.92 1138 3312 1138 3318.07 1138 3323 1142.92 3323 1149Z" stroke="#A5A5A5" stroke-width="3.4375" stroke-linecap="butt" stroke-linejoin="round" stroke-miterlimit="10" stroke-opacity="1" fill="#A5A5A5" fill-rule="nonzero" fill-opacity="1"/></g><g clip-path="url(#clip37)"><text fill="#595959" fill-opacity="1" font-family="Calibri,Calibri_MSFontService,sans-serif" font-style="normal" font-variant="normal" font-weight="400" font-stretch="normal" font-size="41" text-anchor="start" direction="ltr" writing-mode="lr-tb" unicode-bidi="normal" text-decoration="none" transform="matrix(1 0 0 1 3366.25 1160)">live</text></g><g clip-path="url(#clip38)"><path d="M3269 1227 3357 1227" stroke="#FFC000" stroke-width="10.3125" stroke-linecap="round" stroke-linejoin="round" stroke-miterlimit="10" stroke-opacity="1" fill="none" fill-rule="evenodd"/></g><g clip-path="url(#clip39)"><path d="M3323 1226C3323 1232.07 3318.07 1237 3312 1237 3305.92 1237 3301 1232.07 3301 1226 3301 1219.92 3305.92 1215 3312 1215 3318.07 1215 3323 1219.92 3323 1226Z" stroke="#FFC000" stroke-width="3.4375" stroke-linecap="butt" stroke-linejoin="round" stroke-miterlimit="10" stroke-opacity="1" fill="#FFC000" fill-rule="nonzero" fill-opacity="1"/></g><g clip-path="url(#clip40)"><text fill="#595959" fill-opacity="1" font-family="Calibri,Calibri_MSFontService,sans-serif" font-style="normal" font-variant="normal" font-weight="400" font-stretch="normal" font-size="41" text-anchor="start" direction="ltr" writing-mode="lr-tb" unicode-bidi="normal" text-decoration="none" transform="matrix(1 0 0 1 3366.25 1237)">successful</text></g><rect x="1774.5" y="193.5" width="1815" height="1833" stroke="#D9D9D9" stroke-width="3.4375" stroke-linecap="butt" stroke-linejoin="round" stroke-miterlimit="10" stroke-opacity="1" fill="none"/></g></svg>