<svg width="3084" height="1581" xmlns="http://www.w3.org/2000/svg" xmlns:xlink="http://www.w3.org/1999/xlink" overflow="hidden"><defs><clipPath id="clip0"><rect x="307" y="1132" width="3084" height="1581"/></clipPath><clipPath id="clip1"><rect x="311" y="1136" width="3076" height="1572"/></clipPath><clipPath id="clip2"><rect x="311" y="1136" width="3076" height="1572"/></clipPath><clipPath id="clip3"><rect x="471" y="1306" width="2869" height="1094"/></clipPath><clipPath id="clip4"><rect x="471" y="1306" width="2869" height="1094"/></clipPath><clipPath id="clip5"><rect x="471" y="1306" width="2869" height="1094"/></clipPath><clipPath id="clip6"><rect x="311" y="1136" width="3076" height="1572"/></clipPath><clipPath id="clip7"><rect x="311" y="1136" width="3076" height="1572"/></clipPath><clipPath id="clip8"><rect x="311" y="1136" width="3076" height="1572"/></clipPath><clipPath id="clip9"><rect x="311" y="1136" width="3076" height="1572"/></clipPath><clipPath id="clip10"><rect x="311" y="1136" width="3076" height="1572"/></clipPath><clipPath id="clip11"><rect x="311" y="1136" width="3076" height="1572"/></clipPath><clipPath id="clip12"><rect x="311" y="1136" width="3076" height="1572"/></clipPath><clipPath id="clip13"><rect x="311" y="1136" width="3076" height="1572"/></clipPath><clipPath id="clip14"><rect x="311" y="1136" width="3076" height="1572"/></clipPath><clipPath id="clip15"><rect x="311" y="1136" width="3076" height="1572"/></clipPath><clipPath id="clip16"><rect x="311" y="1136" width="3076" height="1572"/></clipPath><clipPath id="clip17"><rect x="311" y="1136" width="3076" height="1572"/></clipPath><clipPath id="clip18"><rect x="311" y="1136" width="3076" height="1572"/></clipPath><clipPath id="clip19"><rect x="311" y="1136" width="3076" height="1572"/></clipPath><clipPath id="clip20"><rect x="311" y="1136" width="3076" height="1572"/></clipPath><clipPath id="clip21"><rect x="311" y="1136" width="3076" height="1572"/></clipPath><clipPath id="clip22"><rect x="311" y="1136" width="3076" height="1572"/></clipPath><clipPath id="clip23"><rect x="311" y="1136" width="3076" height="1572"/></clipPath><clipPath id="clip24"><rect x="311" y="1136" width="3076" height="1572"/></clipPath><clipPath id="clip25"><rect x="311" y="1136" width="3076" height="1572"/></clipPath><clipPath id="clip26"><rect x="311" y="1136" width="3076" height="1572"/></clipPath><clipPath id="clip27"><rect x="311" y="1136" width="3076" height="1572"/></clipPath><clipPath id="clip28"><rect x="311" y="1136" width="3076" height="1572"/></clipPath><clipPath id="clip29"><rect x="311" y="1136" width="3076" height="1572"/></clipPath><clipPath id="clip30"><rect x="311" y="1136" width="3076" height="1572"/></clipPath><clipPath id="clip31"><rect x="311" y="1136" width="3076" height="1572"/></clipPath><clipPath id="clip32"><rect x="311" y="1136" width="3076" height="1572"/></clipPath><clipPath id="clip33"><rect x="311" y="1136" width="3076" height="1572"/></clipPath><clipPath id="clip34"><rect x="311" y="1136" width="3076" height="1572"/></clipPath><clipPath id="clip35"><rect x="311" y="1136" width="3076" height="1572"/></clipPath><clipPath id="clip36"><rect x="311" y="1136" width="3076" height="1572"/></clipPath><clipPath id="clip37"><rect x="311" y="1136" width="3076" height="1572"/></clipPath><clipPath id="clip38"><rect x="311" y="1136" width="3076" height="1572"/></clipPath><clipPath id="clip39"><rect x="311" y="1136" width="3076" height="1572"/></clipPath><clipPath id="clip40"><rect x="311" y="1136" width="3076" height="1572"/></clipPath><clipPath id="clip41"><rect x="311" y="1136" width="3076" height="1572"/></clipPath><clipPath id="clip42"><rect x="311" y="1136" width="3076" height="1572"/></clipPath></defs><g clip-path="url(#clip0)" transform="translate(-307 -1132)"><rect x="312" y="1137" width="3075" height="1572" fill="#FFFFFF" fill-opacity="1"/><g clip-path="url(#clip1)"><path d="M471.5 2215.57 3336.5 2215.57M471.5 2033.57 3336.5 2033.57M471.5 1851.56 3336.5 1851.56M471.5 1670.56 3336.5 1670.56M471.5 1488.55 3336.5 1488.55M471.5 1306.5 3336.5 1306.5" stroke="#D9D9D9" stroke-width="3.4375" stroke-linecap="butt" stroke-linejoin="round" stroke-miterlimit="10" stroke-opacity="1" fill="none" fill-rule="nonzero"/></g><g clip-path="url(#clip2)"><path d="M471.5 2396.5 3336.5 2396.5" stroke="#D9D9D9" stroke-width="3.4375" stroke-linecap="butt" stroke-linejoin="round" stroke-miterlimit="10" stroke-opacity="1" fill="none" fill-rule="evenodd"/></g><g clip-path="url(#clip3)"><path d="M591 1708 830.027 1737.06 1069.04 1897.06 1307.04 1905.06 1546.05 1943.06 1785.06 1988.07 2024.07 2215.07 2262.07 2149.07 2501.08 1791.06 2740.09 1791.06 2978.1 2397 3217 2283.07" stroke="#4472C4" stroke-width="10.3125" stroke-linecap="round" stroke-linejoin="round" stroke-miterlimit="10" stroke-opacity="1" fill="none" fill-rule="nonzero"/></g><g clip-path="url(#clip4)"><path d="M591 2177 830.027 2148.07 1069.04 1988.07 1307.04 1980.06 1546.05 1943.06 1785.06 1897.06 2024.07 1670.05 2262.07 1736.06 2501.08 2094.07 2740.09 2094.07 2978.1 1488 3217 1602.05" stroke="#ED7D31" stroke-width="10.3125" stroke-linecap="round" stroke-linejoin="round" stroke-miterlimit="10" stroke-opacity="1" fill="none" fill-rule="nonzero"/></g><g clip-path="url(#clip5)"><path d="M591 2397 830.027 2397 1069.04 2397 1307.04 2397 1546.05 2397 1785.06 2397 2024.07 2397 2262.07 2397 2501.08 2397 2740.09 2397 2978.1 2397 3217 2397" stroke="#7F7F7F" stroke-width="10.3125" stroke-linecap="round" stroke-linejoin="round" stroke-miterlimit="10" stroke-opacity="1" fill="none" fill-rule="nonzero"/></g><g clip-path="url(#clip6)"><text fill="#595959" fill-opacity="1" font-family="Calibri,Calibri_MSFontService,sans-serif" font-style="normal" font-variant="normal" font-weight="400" font-stretch="normal" font-size="41" text-anchor="start" direction="ltr" writing-mode="lr-tb" unicode-bidi="normal" text-decoration="none" transform="matrix(1 0 0 1 383.258 2407)">0%</text></g><g clip-path="url(#clip7)"><text fill="#595959" fill-opacity="1" font-family="Calibri,Calibri_MSFontService,sans-serif" font-style="normal" font-variant="normal" font-weight="400" font-stretch="normal" font-size="41" text-anchor="start" direction="ltr" writing-mode="lr-tb" unicode-bidi="normal" text-decoration="none" transform="matrix(1 0 0 1 362.358 2225)">20%</text></g><g clip-path="url(#clip8)"><text fill="#595959" fill-opacity="1" font-family="Calibri,Calibri_MSFontService,sans-serif" font-style="normal" font-variant="normal" font-weight="400" font-stretch="normal" font-size="41" text-anchor="start" direction="ltr" writing-mode="lr-tb" unicode-bidi="normal" text-decoration="none" transform="matrix(1 0 0 1 362.358 2044)">40%</text></g><g clip-path="url(#clip9)"><text fill="#595959" fill-opacity="1" font-family="Calibri,Calibri_MSFontService,sans-serif" font-style="normal" font-variant="normal" font-weight="400" font-stretch="normal" font-size="41" text-anchor="start" direction="ltr" writing-mode="lr-tb" unicode-bidi="normal" text-decoration="none" transform="matrix(1 0 0 1 362.358 1862)">60%</text></g><g clip-path="url(#clip10)"><text fill="#595959" fill-opacity="1" font-family="Calibri,Calibri_MSFontService,sans-serif" font-style="normal" font-variant="normal" font-weight="400" font-stretch="normal" font-size="41" text-anchor="start" direction="ltr" writing-mode="lr-tb" unicode-bidi="normal" text-decoration="none" transform="matrix(1 0 0 1 362.358 1680)">80%</text></g><g clip-path="url(#clip11)"><text fill="#595959" fill-opacity="1" font-family="Calibri,Calibri_MSFontService,sans-serif" font-style="normal" font-variant="normal" font-weight="400" font-stretch="normal" font-size="41" text-anchor="start" direction="ltr" writing-mode="lr-tb" unicode-bidi="normal" text-decoration="none" transform="matrix(1 0 0 1 341.458 1498)">100%</text></g><g clip-path="url(#clip12)"><text fill="#595959" fill-opacity="1" font-family="Calibri,Calibri_MSFontService,sans-serif" font-style="normal" font-variant="normal" font-weight="400" font-stretch="normal" font-size="41" text-anchor="start" direction="ltr" writing-mode="lr-tb" unicode-bidi="normal" text-decoration="none" transform="matrix(1 0 0 1 341.458 1317)">120%</text></g><g clip-path="url(#clip13)"><text fill="#595959" fill-opacity="1" font-family="Calibri,Calibri_MSFontService,sans-serif" font-style="normal" font-variant="normal" font-weight="400" font-stretch="normal" font-size="41" text-anchor="start" direction="ltr" writing-mode="lr-tb" unicode-bidi="normal" text-decoration="none" transform="matrix(1 0 0 1 513.08 2462)">Less than</text></g><g clip-path="url(#clip14)"><text fill="#595959" fill-opacity="1" font-family="Calibri,Calibri_MSFontService,sans-serif" font-style="normal" font-variant="normal" font-weight="400" font-stretch="normal" font-size="41" text-anchor="start" direction="ltr" writing-mode="lr-tb" unicode-bidi="normal" text-decoration="none" transform="matrix(1 0 0 1 549.484 2512)">1000</text></g><g clip-path="url(#clip15)"><text fill="#595959" fill-opacity="1" font-family="Calibri,Calibri_MSFontService,sans-serif" font-style="normal" font-variant="normal" font-weight="400" font-stretch="normal" font-size="41" text-anchor="start" direction="ltr" writing-mode="lr-tb" unicode-bidi="normal" text-decoration="none" transform="matrix(1 0 0 1 719.302 2462)">1000 to 4999</text></g><g clip-path="url(#clip16)"><text fill="#595959" fill-opacity="1" font-family="Calibri,Calibri_MSFontService,sans-serif" font-style="normal" font-variant="normal" font-weight="400" font-stretch="normal" font-size="41" text-anchor="start" direction="ltr" writing-mode="lr-tb" unicode-bidi="normal" text-decoration="none" transform="matrix(1 0 0 1 958.031 2462)">5000 to 9999</text></g><g clip-path="url(#clip17)"><text fill="#595959" fill-opacity="1" font-family="Calibri,Calibri_MSFontService,sans-serif" font-style="normal" font-variant="normal" font-weight="400" font-stretch="normal" font-size="41" text-anchor="start" direction="ltr" writing-mode="lr-tb" unicode-bidi="normal" text-decoration="none" transform="matrix(1 0 0 1 1232.77 2462)">10000 to</text></g><g clip-path="url(#clip18)"><text fill="#595959" fill-opacity="1" font-family="Calibri,Calibri_MSFontService,sans-serif" font-style="normal" font-variant="normal" font-weight="400" font-stretch="normal" font-size="41" text-anchor="start" direction="ltr" writing-mode="lr-tb" unicode-bidi="normal" text-decoration="none" transform="matrix(1 0 0 1 1255.22 2512)">14999</text></g><g clip-path="url(#clip19)"><text fill="#595959" fill-opacity="1" font-family="Calibri,Calibri_MSFontService,sans-serif" font-style="normal" font-variant="normal" font-weight="400" font-stretch="normal" font-size="41" text-anchor="start" direction="ltr" writing-mode="lr-tb" unicode-bidi="normal" text-decoration="none" transform="matrix(1 0 0 1 1471.5 2462)">15000 to</text></g><g clip-path="url(#clip20)"><text fill="#595959" fill-opacity="1" font-family="Calibri,Calibri_MSFontService,sans-serif" font-style="normal" font-variant="normal" font-weight="400" font-stretch="normal" font-size="41" text-anchor="start" direction="ltr" writing-mode="lr-tb" unicode-bidi="normal" text-decoration="none" transform="matrix(1 0 0 1 1493.95 2512)">19999</text></g><g clip-path="url(#clip21)"><text fill="#595959" fill-opacity="1" font-family="Calibri,Calibri_MSFontService,sans-serif" font-style="normal" font-variant="normal" font-weight="400" font-stretch="normal" font-size="41" text-anchor="start" direction="ltr" writing-mode="lr-tb" unicode-bidi="normal" text-decoration="none" transform="matrix(1 0 0 1 1710.23 2462)">20000 to</text></g><g clip-path="url(#clip22)"><text fill="#595959" fill-opacity="1" font-family="Calibri,Calibri_MSFontService,sans-serif" font-style="normal" font-variant="normal" font-weight="400" font-stretch="normal" font-size="41" text-anchor="start" direction="ltr" writing-mode="lr-tb" unicode-bidi="normal" text-decoration="none" transform="matrix(1 0 0 1 1732.68 2512)">24999</text></g><g clip-path="url(#clip23)"><text fill="#595959" fill-opacity="1" font-family="Calibri,Calibri_MSFontService,sans-serif" font-style="normal" font-variant="normal" font-weight="400" font-stretch="normal" font-size="41" text-anchor="start" direction="ltr" writing-mode="lr-tb" unicode-bidi="normal" text-decoration="none" transform="matrix(1 0 0 1 1948.96 2462)">25000 to</text></g><g clip-path="url(#clip24)"><text fill="#595959" fill-opacity="1" font-family="Calibri,Calibri_MSFontService,sans-serif" font-style="normal" font-variant="normal" font-weight="400" font-stretch="normal" font-size="41" text-anchor="start" direction="ltr" writing-mode="lr-tb" unicode-bidi="normal" text-decoration="none" transform="matrix(1 0 0 1 1971.41 2512)">29999</text></g><g clip-path="url(#clip25)"><text fill="#595959" fill-opacity="1" font-family="Calibri,Calibri_MSFontService,sans-serif" font-style="normal" font-variant="normal" font-weight="400" font-stretch="normal" font-size="41" text-anchor="start" direction="ltr" writing-mode="lr-tb" unicode-bidi="normal" text-decoration="none" transform="matrix(1 0 0 1 2187.69 2462)">30000 to</text></g><g clip-path="url(#clip26)"><text fill="#595959" fill-opacity="1" font-family="Calibri,Calibri_MSFontService,sans-serif" font-style="normal" font-variant="normal" font-weight="400" font-stretch="normal" font-size="41" text-anchor="start" direction="ltr" writing-mode="lr-tb" unicode-bidi="normal" text-decoration="none" transform="matrix(1 0 0 1 2210.14 2512)">34999</text></g><g clip-path="url(#clip27)"><text fill="#595959" fill-opacity="1" font-family="Calibri,Calibri_MSFontService,sans-serif" font-style="normal" font-variant="normal" font-weight="400" font-stretch="normal" font-size="41" text-anchor="start" direction="ltr" writing-mode="lr-tb" unicode-bidi="normal" text-decoration="none" transform="matrix(1 0 0 1 2426.42 2462)">35000 to</text></g><g clip-path="url(#clip28)"><text fill="#595959" fill-opacity="1" font-family="Calibri,Calibri_MSFontService,sans-serif" font-style="normal" font-variant="normal" font-weight="400" font-stretch="normal" font-size="41" text-anchor="start" direction="ltr" writing-mode="lr-tb" unicode-bidi="normal" text-decoration="none" transform="matrix(1 0 0 1 2448.87 2512)">39999</text></g><g clip-path="url(#clip29)"><text fill="#595959" fill-opacity="1" font-family="Calibri,Calibri_MSFontService,sans-serif" font-style="normal" font-variant="normal" font-weight="400" font-stretch="normal" font-size="41" text-anchor="start" direction="ltr" writing-mode="lr-tb" unicode-bidi="normal" text-decoration="none" transform="matrix(1 0 0 1 2665.15 2462)">40000 to</text></g><g clip-path="url(#clip30)"><text fill="#595959" fill-opacity="1" font-family="Calibri,Calibri_MSFontService,sans-serif" font-style="normal" font-variant="normal" font-weight="400" font-stretch="normal" font-size="41" text-anchor="start" direction="ltr" writing-mode="lr-tb" unicode-bidi="normal" text-decoration="none" transform="matrix(1 0 0 1 2687.59 2512)">44999</text></g><g clip-path="url(#clip31)"><text fill="#595959" fill-opacity="1" font-family="Calibri,Calibri_MSFontService,sans-serif" font-style="normal" font-variant="normal" font-weight="400" font-stretch="normal" font-size="41" text-anchor="start" direction="ltr" writing-mode="lr-tb" unicode-bidi="normal" text-decoration="none" transform="matrix(1 0 0 1 2903.88 2462)">45000 to</text></g><g clip-path="url(#clip32)"><text fill="#595959" fill-opacity="1" font-family="Calibri,Calibri_MSFontService,sans-serif" font-style="normal" font-variant="normal" font-weight="400" font-stretch="normal" font-size="41" text-anchor="start" direction="ltr" writing-mode="lr-tb" unicode-bidi="normal" text-decoration="none" transform="matrix(1 0 0 1 2926.32 2512)">49999</text></g><g clip-path="url(#clip33)"><text fill="#595959" fill-opacity="1" font-family="Calibri,Calibri_MSFontService,sans-serif" font-style="normal" font-variant="normal" font-weight="400" font-stretch="normal" font-size="41" text-anchor="start" direction="ltr" writing-mode="lr-tb" unicode-bidi="normal" text-decoration="none" transform="matrix(1 0 0 1 3109.44 2462)">Greater than</text></g><g clip-path="url(#clip34)"><text fill="#595959" fill-opacity="1" font-family="Calibri,Calibri_MSFontService,sans-serif" font-style="normal" font-variant="normal" font-weight="400" font-stretch="normal" font-size="41" text-anchor="start" direction="ltr" writing-mode="lr-tb" unicode-bidi="normal" text-decoration="none" transform="matrix(1 0 0 1 3125.57 2512)">or equal to</text></g><g clip-path="url(#clip35)"><text fill="#595959" fill-opacity="1" font-family="Calibri,Calibri_MSFontService,sans-serif" font-style="normal" font-variant="normal" font-weight="400" font-stretch="normal" font-size="41" text-anchor="start" direction="ltr" writing-mode="lr-tb" unicode-bidi="normal" text-decoration="none" transform="matrix(1 0 0 1 3165.05 2563)">50000</text></g><g clip-path="url(#clip36)"><text fill="#595959" fill-opacity="1" font-family="Calibri,Calibri_MSFontService,sans-serif" font-style="normal" font-variant="normal" font-weight="400" font-stretch="normal" font-size="64" text-anchor="start" direction="ltr" writing-mode="lr-tb" unicode-bidi="normal" text-decoration="none" transform="matrix(1 0 0 1 1522.94 1232)">Outcomes Based on Goal</text></g><g clip-path="url(#clip37)"><path d="M1121 2643 1209 2643" stroke="#4472C4" stroke-width="10.3125" stroke-linecap="round" stroke-linejoin="round" stroke-miterlimit="10" stroke-opacity="1" fill="none" fill-rule="evenodd"/></g><g clip-path="url(#clip38)"><text fill="#595959" fill-opacity="1" font-family="Calibri,Calibri_MSFontService,sans-serif" font-style="normal" font-variant="normal" font-weight="400" font-stretch="normal" font-size="41" text-anchor="start" direction="ltr" writing-mode="lr-tb" unicode-bidi="normal" text-decoration="none" transform="matrix(1 0 0 1 1217.95 2653)">Percentage Successful</text></g><g clip-path="url(#clip39)"><path d="M1669 2643 1757 2643" stroke="#ED7D31" stroke-width="10.3125" stroke-linecap="round" stroke-linejoin="round" stroke-miterlimit="10" stroke-opacity="1" fill="none" fill-rule="evenodd"/></g><g clip-path="url(#clip40)"><text fill="#595959" fill-opacity="1" font-family="Calibri,Calibri_MSFontService,sans-serif" font-style="normal" font-variant="normal" font-weight="400" font-stretch="normal" font-size="41" text-anchor="start" direction="ltr" writing-mode="lr-tb" unicode-bidi="normal" text-decoration="none" transform="matrix(1 0 0 1 1766.28 2653)">Percentage Failed</text></g><g clip-path="url(#clip41)"><path d="M2145 2643 2233 2643" stroke="#7F7F7F" stroke-width="10.3125" stroke-linecap="round" stroke-linejoin="round" stroke-miterlimit="10" stroke-opacity="1" fill="none" fill-rule="evenodd"/></g><g clip-path="url(#clip42)"><text fill="#595959" fill-opacity="1" font-family="Calibri,Calibri_MSFontService,sans-serif" font-style="normal" font-variant="normal" font-weight="400" font-stretch="normal" font-size="41" text-anchor="start" direction="ltr" writing-mode="lr-tb" unicode-bidi="normal" text-decoration="none" transform="matrix(1 0 0 1 2242.42 2653)">Percentage Canceled</text></g><rect x="312.5" y="1137.5" width="3075" height="1572" stroke="#D9D9D9" stroke-width="3.4375" stroke-linecap="butt" stroke-linejoin="round" stroke-miterlimit="10" stroke-opacity="1" fill="none"/></g></svg>