<svg width="2970" height="1650" xmlns="http://www.w3.org/2000/svg" xmlns:xlink="http://www.w3.org/1999/xlink" overflow="hidden"><defs><clipPath id="clip0"><rect x="1727" y="206" width="2970" height="1650"/></clipPath><clipPath id="clip1"><rect x="1732" y="210" width="2961" height="1641"/></clipPath><clipPath id="clip2"><rect x="1732" y="210" width="2961" height="1641"/></clipPath><clipPath id="clip3"><rect x="2037" y="305" width="2390" height="1444"/></clipPath><clipPath id="clip4"><rect x="1732" y="210" width="2961" height="1641"/></clipPath><clipPath id="clip5"><rect x="2037" y="305" width="2390" height="1444"/></clipPath><clipPath id="clip6"><rect x="1732" y="210" width="2961" height="1641"/></clipPath><clipPath id="clip7"><rect x="1732" y="210" width="2961" height="1641"/></clipPath><clipPath id="clip8"><rect x="1732" y="210" width="2961" height="1641"/></clipPath><clipPath id="clip9"><rect x="1732" y="210" width="2961" height="1641"/></clipPath><clipPath id="clip10"><rect x="1732" y="210" width="2961" height="1641"/></clipPath><clipPath id="clip11"><rect x="1732" y="210" width="2961" height="1641"/></clipPath><clipPath id="clip12"><rect x="1732" y="210" width="2961" height="1641"/></clipPath><clipPath id="clip13"><rect x="1732" y="210" width="2961" height="1641"/></clipPath><clipPath id="clip14"><rect x="1732" y="210" width="2961" height="1641"/></clipPath><clipPath id="clip15"><rect x="1732" y="210" width="2961" height="1641"/></clipPath><clipPath id="clip16"><rect x="1732" y="210" width="2961" height="1641"/></clipPath><clipPath id="clip17"><rect x="1732" y="210" width="2961" height="1641"/></clipPath><clipPath id="clip18"><rect x="2037" y="305" width="2390" height="1444"/></clipPath><clipPath id="clip19"><rect x="1732" y="210" width="2961" height="1641"/></clipPath><clipPath id="clip20"><rect x="1732" y="210" width="2961" height="1641"/></clipPath><clipPath id="clip21"><rect x="1732" y="210" width="2961" height="1641"/></clipPath><clipPath id="clip22"><rect x="1732" y="210" width="2961" height="1641"/></clipPath><clipPath id="clip23"><rect x="1732" y="210" width="2961" height="1641"/></clipPath><clipPath id="clip24"><rect x="1732" y="210" width="2961" height="1641"/></clipPath><clipPath id="clip25"><rect x="1732" y="210" width="2961" height="1641"/></clipPath><clipPath id="clip26"><rect x="1732" y="210" width="2961" height="1641"/></clipPath><clipPath id="clip27"><rect x="1732" y="210" width="2961" height="1641"/></clipPath><clipPath id="clip28"><rect x="1732" y="210" width="2961" height="1641"/></clipPath><clipPath id="clip29"><rect x="1732" y="210" width="2961" height="1641"/></clipPath><clipPath id="clip30"><rect x="1732" y="210" width="2961" height="1641"/></clipPath><clipPath id="clip31"><rect x="1732" y="210" width="2961" height="1641"/></clipPath><clipPath id="clip32"><rect x="1732" y="210" width="2961" height="1641"/></clipPath><clipPath id="clip33"><rect x="1732" y="210" width="2961" height="1641"/></clipPath><clipPath id="clip34"><rect x="1732" y="210" width="2961" height="1641"/></clipPath><clipPath id="clip35"><rect x="1732" y="210" width="2961" height="1641"/></clipPath><clipPath id="clip36"><rect x="1732" y="210" width="2961" height="1641"/></clipPath><clipPath id="clip37"><rect x="1732" y="210" width="2961" height="1641"/></clipPath><clipPath id="clip38"><rect x="1732" y="210" width="2961" height="1641"/></clipPath><clipPath id="clip39"><rect x="1732" y="210" width="2961" height="1641"/></clipPath><clipPath id="clip40"><rect x="1732" y="210" width="2961" height="1641"/></clipPath><clipPath id="clip41"><rect x="1732" y="210" width="2961" height="1641"/></clipPath><clipPath id="clip42"><rect x="1732" y="210" width="2961" height="1641"/></clipPath><clipPath id="clip43"><rect x="1732" y="210" width="2961" height="1641"/></clipPath><clipPath id="clip44"><rect x="1732" y="210" width="2961" height="1641"/></clipPath><clipPath id="clip45"><rect x="1732" y="210" width="2961" height="1641"/></clipPath><clipPath id="clip46"><rect x="1732" y="210" width="2961" height="1641"/></clipPath><clipPath id="clip47"><rect x="1732" y="210" width="2961" height="1641"/></clipPath><clipPath id="clip48"><rect x="1732" y="210" width="2961" height="1641"/></clipPath></defs><g clip-path="url(#clip0)" transform="translate(-1727 -206)"><rect x="1733" y="211" width="2960" height="1641" fill="#FFFFFF" fill-opacity="1"/><g clip-path="url(#clip1)"><path d="M2037.5 1506.55 4424.5 1506.55M2037.5 1265.54 4424.5 1265.54M2037.5 1025.53 4424.5 1025.53M2037.5 785.526 4424.5 785.526M2037.5 545.518 4424.5 545.518M2037.5 305.5 4424.5 305.5" stroke="#D9D9D9" stroke-width="3.4375" stroke-linecap="butt" stroke-linejoin="round" stroke-miterlimit="10" stroke-opacity="1" fill="none" fill-rule="nonzero"/></g><g clip-path="url(#clip2)"><path d="M2037.5 1746.5 4424.5 1746.5" stroke="#D9D9D9" stroke-width="3.4375" stroke-linecap="butt" stroke-linejoin="round" stroke-miterlimit="10" stroke-opacity="1" fill="none" fill-rule="evenodd"/></g><g clip-path="url(#clip3)"><path d="M2137 1074.04 2336.08 894.029 2534.08 1074.04 2733.09 894.029 2932.1 413 3131.1 545.018 3330.11 702.023 3529.12 882.029 3728.12 1038.03 3927.13 966.032 4126.14 1098.04 4325 1302" stroke="#4472C4" stroke-width="10.3125" stroke-linecap="round" stroke-linejoin="round" stroke-miterlimit="10" stroke-opacity="1" fill="none" fill-rule="nonzero"/></g><g clip-path="url(#clip4)"><path d="M2148 1073.33C2148 1079.41 2143.07 1084.33 2137 1084.33 2130.92 1084.33 2126 1079.41 2126 1073.33 2126 1067.26 2130.92 1062.33 2137 1062.33 2143.07 1062.33 2148 1067.26 2148 1073.33Z" stroke="#000000" stroke-width="3.4375" stroke-linecap="butt" stroke-linejoin="round" stroke-miterlimit="10" stroke-opacity="1" fill="#4472C4" fill-rule="nonzero" fill-opacity="1"/><path d="M2347 893.333C2347 899.408 2342.07 904.332 2336 904.332 2329.92 904.332 2325 899.408 2325 893.333 2325 887.258 2329.92 882.333 2336 882.333 2342.07 882.333 2347 887.258 2347 893.333Z" stroke="#000000" stroke-width="3.4375" stroke-linecap="butt" stroke-linejoin="round" stroke-miterlimit="10" stroke-opacity="1" fill="#4472C4" fill-rule="nonzero" fill-opacity="1"/><path d="M2546 1073.33C2546 1079.41 2541.07 1084.33 2535 1084.33 2528.92 1084.33 2524 1079.41 2524 1073.33 2524 1067.26 2528.92 1062.33 2535 1062.33 2541.07 1062.33 2546 1067.26 2546 1073.33Z" stroke="#000000" stroke-width="3.4375" stroke-linecap="butt" stroke-linejoin="round" stroke-miterlimit="10" stroke-opacity="1" fill="#4472C4" fill-rule="nonzero" fill-opacity="1"/><path d="M2745 893.333C2745 899.408 2740.07 904.332 2734 904.332 2727.92 904.332 2723 899.408 2723 893.333 2723 887.258 2727.92 882.333 2734 882.333 2740.07 882.333 2745 887.258 2745 893.333Z" stroke="#000000" stroke-width="3.4375" stroke-linecap="butt" stroke-linejoin="round" stroke-miterlimit="10" stroke-opacity="1" fill="#4472C4" fill-rule="nonzero" fill-opacity="1"/><path d="M2944 413.333C2944 419.408 2939.07 424.333 2933 424.333 2926.92 424.333 2922 419.408 2922 413.333 2922 407.258 2926.92 402.333 2933 402.333 2939.07 402.333 2944 407.258 2944 413.333Z" stroke="#000000" stroke-width="3.4375" stroke-linecap="butt" stroke-linejoin="round" stroke-miterlimit="10" stroke-opacity="1" fill="#4472C4" fill-rule="nonzero" fill-opacity="1"/><path d="M3143 545.333C3143 551.408 3138.07 556.333 3132 556.333 3125.92 556.333 3121 551.408 3121 545.333 3121 539.258 3125.92 534.333 3132 534.333 3138.07 534.333 3143 539.258 3143 545.333Z" stroke="#000000" stroke-width="3.4375" stroke-linecap="butt" stroke-linejoin="round" stroke-miterlimit="10" stroke-opacity="1" fill="#4472C4" fill-rule="nonzero" fill-opacity="1"/><path d="M3342 701.333C3342 707.408 3337.07 712.333 3331 712.333 3324.92 712.333 3320 707.408 3320 701.333 3320 695.258 3324.92 690.333 3331 690.333 3337.07 690.333 3342 695.258 3342 701.333Z" stroke="#000000" stroke-width="3.4375" stroke-linecap="butt" stroke-linejoin="round" stroke-miterlimit="10" stroke-opacity="1" fill="#4472C4" fill-rule="nonzero" fill-opacity="1"/><path d="M3541 881.333C3541 887.408 3536.07 892.332 3530 892.332 3523.92 892.332 3519 887.408 3519 881.333 3519 875.258 3523.92 870.333 3530 870.333 3536.07 870.333 3541 875.258 3541 881.333Z" stroke="#000000" stroke-width="3.4375" stroke-linecap="butt" stroke-linejoin="round" stroke-miterlimit="10" stroke-opacity="1" fill="#4472C4" fill-rule="nonzero" fill-opacity="1"/><path d="M3740 1037.33C3740 1043.41 3735.07 1048.33 3729 1048.33 3722.92 1048.33 3718 1043.41 3718 1037.33 3718 1031.26 3722.92 1026.33 3729 1026.33 3735.07 1026.33 3740 1031.26 3740 1037.33Z" stroke="#000000" stroke-width="3.4375" stroke-linecap="butt" stroke-linejoin="round" stroke-miterlimit="10" stroke-opacity="1" fill="#4472C4" fill-rule="nonzero" fill-opacity="1"/><path d="M3939 965.333C3939 971.408 3934.07 976.333 3928 976.333 3921.92 976.333 3917 971.408 3917 965.333 3917 959.258 3921.92 954.333 3928 954.333 3934.07 954.333 3939 959.258 3939 965.333Z" stroke="#000000" stroke-width="3.4375" stroke-linecap="butt" stroke-linejoin="round" stroke-miterlimit="10" stroke-opacity="1" fill="#4472C4" fill-rule="nonzero" fill-opacity="1"/><path d="M4137 1097.33C4137 1103.41 4132.07 1108.33 4126 1108.33 4119.92 1108.33 4115 1103.41 4115 1097.33 4115 1091.26 4119.92 1086.33 4126 1086.33 4132.07 1086.33 4137 1091.26 4137 1097.33Z" stroke="#000000" stroke-width="3.4375" stroke-linecap="butt" stroke-linejoin="round" stroke-miterlimit="10" stroke-opacity="1" fill="#4472C4" fill-rule="nonzero" fill-opacity="1"/><path d="M4336 1301.33C4336 1307.41 4331.07 1312.33 4325 1312.33 4318.92 1312.33 4314 1307.41 4314 1301.33 4314 1295.26 4318.92 1290.33 4325 1290.33 4331.07 1290.33 4336 1295.26 4336 1301.33Z" stroke="#000000" stroke-width="3.4375" stroke-linecap="butt" stroke-linejoin="round" stroke-miterlimit="10" stroke-opacity="1" fill="#4472C4" fill-rule="nonzero" fill-opacity="1"/></g><g clip-path="url(#clip5)"><path d="M2137 1350.04 2336.08 1278.04 2534.08 1350.04 2733.09 1266.04 2932.1 1122 3131.1 1158.04 3330.11 1146.04 3529.12 1182.04 3728.12 1338.04 3927.13 1146.04 4126.14 1374 4325 1326.04" stroke="#FF0000" stroke-width="10.3125" stroke-linecap="round" stroke-linejoin="round" stroke-miterlimit="10" stroke-opacity="1" fill="none" fill-rule="nonzero"/></g><g clip-path="url(#clip6)"><path d="M2147 1350C2147 1356.07 2142.07 1361 2136 1361 2129.92 1361 2125 1356.07 2125 1350 2125 1343.92 2129.92 1339 2136 1339 2142.07 1339 2147 1343.92 2147 1350Z" stroke="#000000" stroke-width="3.4375" stroke-linecap="butt" stroke-linejoin="round" stroke-miterlimit="10" stroke-opacity="1" fill="#FF0000" fill-rule="nonzero" fill-opacity="1"/></g><g clip-path="url(#clip7)"><path d="M2346 1277C2346 1283.07 2341.07 1288 2335 1288 2328.93 1288 2324 1283.07 2324 1277 2324 1270.92 2328.93 1266 2335 1266 2341.07 1266 2346 1270.92 2346 1277Z" stroke="#000000" stroke-width="3.4375" stroke-linecap="butt" stroke-linejoin="round" stroke-miterlimit="10" stroke-opacity="1" fill="#FF0000" fill-rule="nonzero" fill-opacity="1"/></g><g clip-path="url(#clip8)"><path d="M2545 1350C2545 1356.07 2540.07 1361 2534 1361 2527.93 1361 2523 1356.07 2523 1350 2523 1343.92 2527.93 1339 2534 1339 2540.07 1339 2545 1343.92 2545 1350Z" stroke="#000000" stroke-width="3.4375" stroke-linecap="butt" stroke-linejoin="round" stroke-miterlimit="10" stroke-opacity="1" fill="#FF0000" fill-rule="nonzero" fill-opacity="1"/></g><g clip-path="url(#clip9)"><path d="M2744 1265.5C2744 1271.31 2739.07 1276.02 2733 1276.02 2726.93 1276.02 2722 1271.31 2722 1265.5 2722 1259.69 2726.93 1254.98 2733 1254.98 2739.07 1254.98 2744 1259.69 2744 1265.5Z" stroke="#000000" stroke-width="3.4375" stroke-linecap="butt" stroke-linejoin="round" stroke-miterlimit="10" stroke-opacity="1" fill="#FF0000" fill-rule="nonzero" fill-opacity="1"/></g><g clip-path="url(#clip10)"><path d="M2943 1121C2943 1127.07 2938.07 1132 2932 1132 2925.93 1132 2921 1127.07 2921 1121 2921 1114.92 2925.93 1110 2932 1110 2938.07 1110 2943 1114.92 2943 1121Z" stroke="#000000" stroke-width="3.4375" stroke-linecap="butt" stroke-linejoin="round" stroke-miterlimit="10" stroke-opacity="1" fill="#FF0000" fill-rule="nonzero" fill-opacity="1"/></g><g clip-path="url(#clip11)"><path d="M3142 1157C3142 1163.07 3137.07 1168 3131 1168 3124.93 1168 3120 1163.07 3120 1157 3120 1150.92 3124.93 1146 3131 1146 3137.07 1146 3142 1150.92 3142 1157Z" stroke="#000000" stroke-width="3.4375" stroke-linecap="butt" stroke-linejoin="round" stroke-miterlimit="10" stroke-opacity="1" fill="#FF0000" fill-rule="nonzero" fill-opacity="1"/></g><g clip-path="url(#clip12)"><path d="M3341 1145C3341 1151.07 3336.07 1156 3330 1156 3323.93 1156 3319 1151.07 3319 1145 3319 1138.92 3323.93 1134 3330 1134 3336.07 1134 3341 1138.92 3341 1145Z" stroke="#000000" stroke-width="3.4375" stroke-linecap="butt" stroke-linejoin="round" stroke-miterlimit="10" stroke-opacity="1" fill="#FF0000" fill-rule="nonzero" fill-opacity="1"/></g><g clip-path="url(#clip13)"><path d="M3540 1181C3540 1187.07 3535.07 1192 3529 1192 3522.93 1192 3518 1187.07 3518 1181 3518 1174.92 3522.93 1170 3529 1170 3535.07 1170 3540 1174.92 3540 1181Z" stroke="#000000" stroke-width="3.4375" stroke-linecap="butt" stroke-linejoin="round" stroke-miterlimit="10" stroke-opacity="1" fill="#FF0000" fill-rule="nonzero" fill-opacity="1"/></g><g clip-path="url(#clip14)"><path d="M3739 1338C3739 1344.07 3734.08 1349 3728 1349 3721.93 1349 3717 1344.07 3717 1338 3717 1331.92 3721.93 1327 3728 1327 3734.08 1327 3739 1331.92 3739 1338Z" stroke="#000000" stroke-width="3.4375" stroke-linecap="butt" stroke-linejoin="round" stroke-miterlimit="10" stroke-opacity="1" fill="#FF0000" fill-rule="nonzero" fill-opacity="1"/></g><g clip-path="url(#clip15)"><path d="M3938.02 1145C3938.02 1151.07 3933.31 1156 3927.5 1156 3921.69 1156 3916.98 1151.07 3916.98 1145 3916.98 1138.92 3921.69 1134 3927.5 1134 3933.31 1134 3938.02 1138.92 3938.02 1145Z" stroke="#000000" stroke-width="3.4375" stroke-linecap="butt" stroke-linejoin="round" stroke-miterlimit="10" stroke-opacity="1" fill="#FF0000" fill-rule="nonzero" fill-opacity="1"/></g><g clip-path="url(#clip16)"><path d="M4136.02 1374C4136.02 1380.07 4131.31 1385 4125.5 1385 4119.69 1385 4114.98 1380.07 4114.98 1374 4114.98 1367.92 4119.69 1363 4125.5 1363 4131.31 1363 4136.02 1367.92 4136.02 1374Z" stroke="#000000" stroke-width="3.4375" stroke-linecap="butt" stroke-linejoin="round" stroke-miterlimit="10" stroke-opacity="1" fill="#FF0000" fill-rule="nonzero" fill-opacity="1"/></g><g clip-path="url(#clip17)"><path d="M4335 1326C4335 1332.07 4330.08 1337 4324 1337 4317.92 1337 4313 1332.07 4313 1326 4313 1319.92 4317.92 1315 4324 1315 4330.08 1315 4335 1319.92 4335 1326Z" stroke="#000000" stroke-width="3.4375" stroke-linecap="butt" stroke-linejoin="round" stroke-miterlimit="10" stroke-opacity="1" fill="#FF0000" fill-rule="nonzero" fill-opacity="1"/></g><g clip-path="url(#clip18)"><path d="M2137 1662 2336.08 1710.06 2534.08 1710.06 2733.09 1722.06 2932.1 1710.06 3131.1 1698.06 3330.11 1734 3529.12 1698.06 3728.12 1698.06M4126.14 1710.06 4325 1710.06" stroke="#ED7D31" stroke-width="10.3125" stroke-linecap="round" stroke-linejoin="round" stroke-miterlimit="10" stroke-opacity="1" fill="none" fill-rule="nonzero"/></g><g clip-path="url(#clip19)"><path d="M2148 1662.33C2148 1668.41 2143.07 1673.33 2137 1673.33 2130.92 1673.33 2126 1668.41 2126 1662.33 2126 1656.26 2130.92 1651.33 2137 1651.33 2143.07 1651.33 2148 1656.26 2148 1662.33Z" stroke="#000000" stroke-width="3.4375" stroke-linecap="butt" stroke-linejoin="round" stroke-miterlimit="10" stroke-opacity="1" fill="#ED7D31" fill-rule="nonzero" fill-opacity="1"/><path d="M2347 1710.33C2347 1716.41 2342.07 1721.33 2336 1721.33 2329.92 1721.33 2325 1716.41 2325 1710.33 2325 1704.26 2329.92 1699.33 2336 1699.33 2342.07 1699.33 2347 1704.26 2347 1710.33Z" stroke="#000000" stroke-width="3.4375" stroke-linecap="butt" stroke-linejoin="round" stroke-miterlimit="10" stroke-opacity="1" fill="#ED7D31" fill-rule="nonzero" fill-opacity="1"/><path d="M2546 1710.33C2546 1716.41 2541.07 1721.33 2535 1721.33 2528.92 1721.33 2524 1716.41 2524 1710.33 2524 1704.26 2528.92 1699.33 2535 1699.33 2541.07 1699.33 2546 1704.26 2546 1710.33Z" stroke="#000000" stroke-width="3.4375" stroke-linecap="butt" stroke-linejoin="round" stroke-miterlimit="10" stroke-opacity="1" fill="#ED7D31" fill-rule="nonzero" fill-opacity="1"/><path d="M2745 1722.33C2745 1728.41 2740.07 1733.33 2734 1733.33 2727.92 1733.33 2723 1728.41 2723 1722.33 2723 1716.26 2727.92 1711.33 2734 1711.33 2740.07 1711.33 2745 1716.26 2745 1722.33Z" stroke="#000000" stroke-width="3.4375" stroke-linecap="butt" stroke-linejoin="round" stroke-miterlimit="10" stroke-opacity="1" fill="#ED7D31" fill-rule="nonzero" fill-opacity="1"/><path d="M2944 1710.33C2944 1716.41 2939.07 1721.33 2933 1721.33 2926.92 1721.33 2922 1716.41 2922 1710.33 2922 1704.26 2926.92 1699.33 2933 1699.33 2939.07 1699.33 2944 1704.26 2944 1710.33Z" stroke="#000000" stroke-width="3.4375" stroke-linecap="butt" stroke-linejoin="round" stroke-miterlimit="10" stroke-opacity="1" fill="#ED7D31" fill-rule="nonzero" fill-opacity="1"/><path d="M3143 1698.33C3143 1704.41 3138.07 1709.33 3132 1709.33 3125.92 1709.33 3121 1704.41 3121 1698.33 3121 1692.26 3125.92 1687.33 3132 1687.33 3138.07 1687.33 3143 1692.26 3143 1698.33Z" stroke="#000000" stroke-width="3.4375" stroke-linecap="butt" stroke-linejoin="round" stroke-miterlimit="10" stroke-opacity="1" fill="#ED7D31" fill-rule="nonzero" fill-opacity="1"/><path d="M3342 1734.33C3342 1740.41 3337.07 1745.33 3331 1745.33 3324.92 1745.33 3320 1740.41 3320 1734.33 3320 1728.26 3324.92 1723.33 3331 1723.33 3337.07 1723.33 3342 1728.26 3342 1734.33Z" stroke="#000000" stroke-width="3.4375" stroke-linecap="butt" stroke-linejoin="round" stroke-miterlimit="10" stroke-opacity="1" fill="#ED7D31" fill-rule="nonzero" fill-opacity="1"/><path d="M3541 1698.33C3541 1704.41 3536.07 1709.33 3530 1709.33 3523.92 1709.33 3519 1704.41 3519 1698.33 3519 1692.26 3523.92 1687.33 3530 1687.33 3536.07 1687.33 3541 1692.26 3541 1698.33Z" stroke="#000000" stroke-width="3.4375" stroke-linecap="butt" stroke-linejoin="round" stroke-miterlimit="10" stroke-opacity="1" fill="#ED7D31" fill-rule="nonzero" fill-opacity="1"/><path d="M3740 1698.33C3740 1704.41 3735.07 1709.33 3729 1709.33 3722.92 1709.33 3718 1704.41 3718 1698.33 3718 1692.26 3722.92 1687.33 3729 1687.33 3735.07 1687.33 3740 1692.26 3740 1698.33Z" stroke="#000000" stroke-width="3.4375" stroke-linecap="butt" stroke-linejoin="round" stroke-miterlimit="10" stroke-opacity="1" fill="#ED7D31" fill-rule="nonzero" fill-opacity="1"/><path d="M4137 1710.33C4137 1716.41 4132.07 1721.33 4126 1721.33 4119.92 1721.33 4115 1716.41 4115 1710.33 4115 1704.26 4119.92 1699.33 4126 1699.33 4132.07 1699.33 4137 1704.26 4137 1710.33Z" stroke="#000000" stroke-width="3.4375" stroke-linecap="butt" stroke-linejoin="round" stroke-miterlimit="10" stroke-opacity="1" fill="#ED7D31" fill-rule="nonzero" fill-opacity="1"/><path d="M4336 1710.33C4336 1716.41 4331.07 1721.33 4325 1721.33 4318.92 1721.33 4314 1716.41 4314 1710.33 4314 1704.26 4318.92 1699.33 4325 1699.33 4331.07 1699.33 4336 1704.26 4336 1710.33Z" stroke="#000000" stroke-width="3.4375" stroke-linecap="butt" stroke-linejoin="round" stroke-miterlimit="10" stroke-opacity="1" fill="#ED7D31" fill-rule="nonzero" fill-opacity="1"/></g><g clip-path="url(#clip20)"><text fill="#000000" fill-opacity="1" font-family="Calibri,Calibri_MSFontService,sans-serif" font-style="normal" font-variant="normal" font-weight="400" font-stretch="normal" font-size="41" text-anchor="start" direction="ltr" writing-mode="lr-tb" unicode-bidi="normal" text-decoration="none" transform="matrix(1 0 0 1 1978.12 1757)">0</text></g><g clip-path="url(#clip21)"><text fill="#000000" fill-opacity="1" font-family="Calibri,Calibri_MSFontService,sans-serif" font-style="normal" font-variant="normal" font-weight="400" font-stretch="normal" font-size="41" text-anchor="start" direction="ltr" writing-mode="lr-tb" unicode-bidi="normal" text-decoration="none" transform="matrix(1 0 0 1 1957.22 1517)">20</text></g><g clip-path="url(#clip22)"><text fill="#000000" fill-opacity="1" font-family="Calibri,Calibri_MSFontService,sans-serif" font-style="normal" font-variant="normal" font-weight="400" font-stretch="normal" font-size="41" text-anchor="start" direction="ltr" writing-mode="lr-tb" unicode-bidi="normal" text-decoration="none" transform="matrix(1 0 0 1 1957.22 1277)">40</text></g><g clip-path="url(#clip23)"><text fill="#000000" fill-opacity="1" font-family="Calibri,Calibri_MSFontService,sans-serif" font-style="normal" font-variant="normal" font-weight="400" font-stretch="normal" font-size="41" text-anchor="start" direction="ltr" writing-mode="lr-tb" unicode-bidi="normal" text-decoration="none" transform="matrix(1 0 0 1 1957.22 1036)">60</text></g><g clip-path="url(#clip24)"><text fill="#000000" fill-opacity="1" font-family="Calibri,Calibri_MSFontService,sans-serif" font-style="normal" font-variant="normal" font-weight="400" font-stretch="normal" font-size="41" text-anchor="start" direction="ltr" writing-mode="lr-tb" unicode-bidi="normal" text-decoration="none" transform="matrix(1 0 0 1 1957.22 796)">80</text></g><g clip-path="url(#clip25)"><text fill="#000000" fill-opacity="1" font-family="Calibri,Calibri_MSFontService,sans-serif" font-style="normal" font-variant="normal" font-weight="400" font-stretch="normal" font-size="41" text-anchor="start" direction="ltr" writing-mode="lr-tb" unicode-bidi="normal" text-decoration="none" transform="matrix(1 0 0 1 1936.32 556)">100</text></g><g clip-path="url(#clip26)"><text fill="#000000" fill-opacity="1" font-family="Calibri,Calibri_MSFontService,sans-serif" font-style="normal" font-variant="normal" font-weight="400" font-stretch="normal" font-size="41" text-anchor="start" direction="ltr" writing-mode="lr-tb" unicode-bidi="normal" text-decoration="none" transform="matrix(1 0 0 1 1936.32 316)">120</text></g><g clip-path="url(#clip27)"><text fill="#000000" fill-opacity="1" font-family="Calibri,Calibri_MSFontService,sans-serif" font-style="normal" font-variant="normal" font-weight="400" font-stretch="normal" font-size="41" text-anchor="start" direction="ltr" writing-mode="lr-tb" unicode-bidi="normal" text-decoration="none" transform="matrix(1 0 0 1 2109.44 1811)">Jan</text></g><g clip-path="url(#clip28)"><text fill="#000000" fill-opacity="1" font-family="Calibri,Calibri_MSFontService,sans-serif" font-style="normal" font-variant="normal" font-weight="400" font-stretch="normal" font-size="41" text-anchor="start" direction="ltr" writing-mode="lr-tb" unicode-bidi="normal" text-decoration="none" transform="matrix(1 0 0 1 2305.07 1811)">Feb</text></g><g clip-path="url(#clip29)"><text fill="#000000" fill-opacity="1" font-family="Calibri,Calibri_MSFontService,sans-serif" font-style="normal" font-variant="normal" font-weight="400" font-stretch="normal" font-size="41" text-anchor="start" direction="ltr" writing-mode="lr-tb" unicode-bidi="normal" text-decoration="none" transform="matrix(1 0 0 1 2499.87 1811)">Mar</text></g><g clip-path="url(#clip30)"><text fill="#000000" fill-opacity="1" font-family="Calibri,Calibri_MSFontService,sans-serif" font-style="normal" font-variant="normal" font-weight="400" font-stretch="normal" font-size="41" text-anchor="start" direction="ltr" writing-mode="lr-tb" unicode-bidi="normal" text-decoration="none" transform="matrix(1 0 0 1 2703.52 1811)">Apr</text></g><g clip-path="url(#clip31)"><text fill="#000000" fill-opacity="1" font-family="Calibri,Calibri_MSFontService,sans-serif" font-style="normal" font-variant="normal" font-weight="400" font-stretch="normal" font-size="41" text-anchor="start" direction="ltr" writing-mode="lr-tb" unicode-bidi="normal" text-decoration="none" transform="matrix(1 0 0 1 2895.57 1811)">May</text></g><g clip-path="url(#clip32)"><text fill="#000000" fill-opacity="1" font-family="Calibri,Calibri_MSFontService,sans-serif" font-style="normal" font-variant="normal" font-weight="400" font-stretch="normal" font-size="41" text-anchor="start" direction="ltr" writing-mode="lr-tb" unicode-bidi="normal" text-decoration="none" transform="matrix(1 0 0 1 3103.09 1811)">Jun</text></g><g clip-path="url(#clip33)"><text fill="#000000" fill-opacity="1" font-family="Calibri,Calibri_MSFontService,sans-serif" font-style="normal" font-variant="normal" font-weight="400" font-stretch="normal" font-size="41" text-anchor="start" direction="ltr" writing-mode="lr-tb" unicode-bidi="normal" text-decoration="none" transform="matrix(1 0 0 1 3308.12 1811)">Jul</text></g><g clip-path="url(#clip34)"><text fill="#000000" fill-opacity="1" font-family="Calibri,Calibri_MSFontService,sans-serif" font-style="normal" font-variant="normal" font-weight="400" font-stretch="normal" font-size="41" text-anchor="start" direction="ltr" writing-mode="lr-tb" unicode-bidi="normal" text-decoration="none" transform="matrix(1 0 0 1 3496.7 1811)">Aug</text></g><g clip-path="url(#clip35)"><text fill="#000000" fill-opacity="1" font-family="Calibri,Calibri_MSFontService,sans-serif" font-style="normal" font-variant="normal" font-weight="400" font-stretch="normal" font-size="41" text-anchor="start" direction="ltr" writing-mode="lr-tb" unicode-bidi="normal" text-decoration="none" transform="matrix(1 0 0 1 3697.53 1811)">Sep</text></g><g clip-path="url(#clip36)"><text fill="#000000" fill-opacity="1" font-family="Calibri,Calibri_MSFontService,sans-serif" font-style="normal" font-variant="normal" font-weight="400" font-stretch="normal" font-size="41" text-anchor="start" direction="ltr" writing-mode="lr-tb" unicode-bidi="normal" text-decoration="none" transform="matrix(1 0 0 1 3897.75 1811)">Oct</text></g><g clip-path="url(#clip37)"><text fill="#000000" fill-opacity="1" font-family="Calibri,Calibri_MSFontService,sans-serif" font-style="normal" font-variant="normal" font-weight="400" font-stretch="normal" font-size="41" text-anchor="start" direction="ltr" writing-mode="lr-tb" unicode-bidi="normal" text-decoration="none" transform="matrix(1 0 0 1 4092.45 1811)">Nov</text></g><g clip-path="url(#clip38)"><text fill="#000000" fill-opacity="1" font-family="Calibri,Calibri_MSFontService,sans-serif" font-style="normal" font-variant="normal" font-weight="400" font-stretch="normal" font-size="41" text-anchor="start" direction="ltr" writing-mode="lr-tb" unicode-bidi="normal" text-decoration="none" transform="matrix(1 0 0 1 4293.21 1811)">Dec</text></g><g clip-path="url(#clip39)"><text fill="#000000" fill-opacity="1" font-family="Calibri,Calibri_MSFontService,sans-serif" font-style="normal" font-variant="normal" font-weight="400" font-stretch="normal" font-size="64" text-anchor="start" direction="ltr" writing-mode="lr-tb" unicode-bidi="normal" text-decoration="none" transform="matrix(1 0 0 1 3062.6 383)">Theater Outcomes Based on Launch Date</text></g><g clip-path="url(#clip40)"><path d="M4374 956 4462 956" stroke="#4472C4" stroke-width="10.3125" stroke-linecap="round" stroke-linejoin="round" stroke-miterlimit="10" stroke-opacity="1" fill="none" fill-rule="evenodd"/></g><g clip-path="url(#clip41)"><path d="M4428 955C4428 961.075 4423.08 966 4417 966 4410.92 966 4406 961.075 4406 955 4406 948.925 4410.92 944 4417 944 4423.08 944 4428 948.925 4428 955Z" stroke="#000000" stroke-width="3.4375" stroke-linecap="butt" stroke-linejoin="round" stroke-miterlimit="10" stroke-opacity="1" fill="#4472C4" fill-rule="nonzero" fill-opacity="1"/></g><g clip-path="url(#clip42)"><text fill="#000000" fill-opacity="1" font-family="Calibri,Calibri_MSFontService,sans-serif" font-style="normal" font-variant="normal" font-weight="400" font-stretch="normal" font-size="41" text-anchor="start" direction="ltr" writing-mode="lr-tb" unicode-bidi="normal" text-decoration="none" transform="matrix(1 0 0 1 4470.83 966)">successful</text></g><g clip-path="url(#clip43)"><path d="M4374 1033 4462 1033" stroke="#FF0000" stroke-width="10.3125" stroke-linecap="round" stroke-linejoin="round" stroke-miterlimit="10" stroke-opacity="1" fill="none" fill-rule="evenodd"/></g><g clip-path="url(#clip44)"><path d="M4428 1032C4428 1038.07 4423.08 1043 4417 1043 4410.92 1043 4406 1038.07 4406 1032 4406 1025.92 4410.92 1021 4417 1021 4423.08 1021 4428 1025.92 4428 1032Z" stroke="#000000" stroke-width="3.4375" stroke-linecap="butt" stroke-linejoin="round" stroke-miterlimit="10" stroke-opacity="1" fill="#000000" fill-rule="nonzero" fill-opacity="1"/></g><g clip-path="url(#clip45)"><text fill="#000000" fill-opacity="1" font-family="Calibri,Calibri_MSFontService,sans-serif" font-style="normal" font-variant="normal" font-weight="400" font-stretch="normal" font-size="41" text-anchor="start" direction="ltr" writing-mode="lr-tb" unicode-bidi="normal" text-decoration="none" transform="matrix(1 0 0 1 4470.83 1044)">failed</text></g><g clip-path="url(#clip46)"><path d="M4374 1110 4462 1110" stroke="#ED7D31" stroke-width="10.3125" stroke-linecap="round" stroke-linejoin="round" stroke-miterlimit="10" stroke-opacity="1" fill="none" fill-rule="evenodd"/></g><g clip-path="url(#clip47)"><path d="M4428 1110C4428 1116.07 4423.08 1121 4417 1121 4410.92 1121 4406 1116.07 4406 1110 4406 1103.92 4410.92 1099 4417 1099 4423.08 1099 4428 1103.92 4428 1110Z" stroke="#000000" stroke-width="3.4375" stroke-linecap="butt" stroke-linejoin="round" stroke-miterlimit="10" stroke-opacity="1" fill="#ED7D31" fill-rule="nonzero" fill-opacity="1"/></g><g clip-path="url(#clip48)"><text fill="#000000" fill-opacity="1" font-family="Calibri,Calibri_MSFontService,sans-serif" font-style="normal" font-variant="normal" font-weight="400" font-stretch="normal" font-size="41" text-anchor="start" direction="ltr" writing-mode="lr-tb" unicode-bidi="normal" text-decoration="none" transform="matrix(1 0 0 1 4470.83 1121)">canceled</text></g><rect x="1733.5" y="211.5" width="2960" height="1641" stroke="#D9D9D9" stroke-width="3.4375" stroke-linecap="butt" stroke-linejoin="round" stroke-miterlimit="10" stroke-opacity="1" fill="none"/></g></svg>